<mxfile host="Electron" agent="Mozilla/5.0 (Windows NT 10.0; Win64; x64) AppleWebKit/537.36 (KHTML, like Gecko) draw.io/24.7.17 Chrome/128.0.6613.36 Electron/32.0.1 Safari/537.36" version="24.7.17">
  <diagram name="Страница — 1" id="H93MWbmMuSzewfCLW2qP">
    <mxGraphModel dx="1246" dy="528" grid="0" gridSize="10" guides="1" tooltips="1" connect="1" arrows="1" fold="1" page="0" pageScale="1" pageWidth="827" pageHeight="1169" math="0" shadow="0">
      <root>
        <mxCell id="0" />
        <mxCell id="1" parent="0" />
        <mxCell id="yGeUrGvi7ydE_a7yzlmj-12" style="edgeStyle=orthogonalEdgeStyle;rounded=0;orthogonalLoop=1;jettySize=auto;html=1;exitX=1;exitY=0.5;exitDx=0;exitDy=0;entryX=0.5;entryY=0;entryDx=0;entryDy=0;" edge="1" parent="1" source="yGeUrGvi7ydE_a7yzlmj-1" target="yGeUrGvi7ydE_a7yzlmj-10">
          <mxGeometry relative="1" as="geometry" />
        </mxCell>
        <mxCell id="yGeUrGvi7ydE_a7yzlmj-13" style="edgeStyle=orthogonalEdgeStyle;rounded=0;orthogonalLoop=1;jettySize=auto;html=1;exitX=0.5;exitY=1;exitDx=0;exitDy=0;entryX=1;entryY=0.5;entryDx=0;entryDy=0;" edge="1" parent="1" source="yGeUrGvi7ydE_a7yzlmj-1" target="yGeUrGvi7ydE_a7yzlmj-8">
          <mxGeometry relative="1" as="geometry" />
        </mxCell>
        <mxCell id="yGeUrGvi7ydE_a7yzlmj-15" style="edgeStyle=orthogonalEdgeStyle;rounded=0;orthogonalLoop=1;jettySize=auto;html=1;exitX=0.25;exitY=1;exitDx=0;exitDy=0;entryX=0.5;entryY=0;entryDx=0;entryDy=0;" edge="1" parent="1" source="yGeUrGvi7ydE_a7yzlmj-1" target="yGeUrGvi7ydE_a7yzlmj-5">
          <mxGeometry relative="1" as="geometry">
            <Array as="points">
              <mxPoint x="440" y="140" />
              <mxPoint x="440" y="210" />
              <mxPoint x="275" y="210" />
            </Array>
          </mxGeometry>
        </mxCell>
        <mxCell id="yGeUrGvi7ydE_a7yzlmj-16" style="edgeStyle=orthogonalEdgeStyle;rounded=0;orthogonalLoop=1;jettySize=auto;html=1;exitX=0.25;exitY=1;exitDx=0;exitDy=0;entryX=0.5;entryY=0;entryDx=0;entryDy=0;" edge="1" parent="1" target="yGeUrGvi7ydE_a7yzlmj-6">
          <mxGeometry relative="1" as="geometry">
            <mxPoint x="460" y="142.5" as="sourcePoint" />
            <mxPoint x="310" y="280" as="targetPoint" />
            <Array as="points">
              <mxPoint x="460" y="233" />
              <mxPoint x="320" y="233" />
              <mxPoint x="320" y="270" />
              <mxPoint x="275" y="270" />
            </Array>
          </mxGeometry>
        </mxCell>
        <mxCell id="yGeUrGvi7ydE_a7yzlmj-18" style="edgeStyle=orthogonalEdgeStyle;rounded=0;orthogonalLoop=1;jettySize=auto;html=1;exitX=0;exitY=0.5;exitDx=0;exitDy=0;entryX=1;entryY=0.5;entryDx=0;entryDy=0;" edge="1" parent="1" source="yGeUrGvi7ydE_a7yzlmj-1" target="yGeUrGvi7ydE_a7yzlmj-3">
          <mxGeometry relative="1" as="geometry" />
        </mxCell>
        <mxCell id="yGeUrGvi7ydE_a7yzlmj-19" style="edgeStyle=orthogonalEdgeStyle;rounded=0;orthogonalLoop=1;jettySize=auto;html=1;exitX=0.5;exitY=0;exitDx=0;exitDy=0;" edge="1" parent="1" source="yGeUrGvi7ydE_a7yzlmj-1" target="yGeUrGvi7ydE_a7yzlmj-7">
          <mxGeometry relative="1" as="geometry" />
        </mxCell>
        <mxCell id="yGeUrGvi7ydE_a7yzlmj-1" value="Arduino nano" style="rounded=0;whiteSpace=wrap;html=1;" vertex="1" parent="1">
          <mxGeometry x="430" y="80" width="120" height="60" as="geometry" />
        </mxCell>
        <mxCell id="yGeUrGvi7ydE_a7yzlmj-2" value="Hdd motor" style="ellipse;whiteSpace=wrap;html=1;aspect=fixed;" vertex="1" parent="1">
          <mxGeometry x="350" y="310" width="80" height="80" as="geometry" />
        </mxCell>
        <mxCell id="yGeUrGvi7ydE_a7yzlmj-3" value="Laser Chip" style="rounded=0;whiteSpace=wrap;html=1;" vertex="1" parent="1">
          <mxGeometry x="270" y="120" width="120" height="60" as="geometry" />
        </mxCell>
        <mxCell id="yGeUrGvi7ydE_a7yzlmj-5" value="Ir sensor" style="rounded=0;whiteSpace=wrap;html=1;" vertex="1" parent="1">
          <mxGeometry x="240" y="220" width="70" height="30" as="geometry" />
        </mxCell>
        <mxCell id="yGeUrGvi7ydE_a7yzlmj-6" value="Ir sensor" style="rounded=0;whiteSpace=wrap;html=1;" vertex="1" parent="1">
          <mxGeometry x="240" y="280" width="70" height="30" as="geometry" />
        </mxCell>
        <mxCell id="yGeUrGvi7ydE_a7yzlmj-7" value="Wi-fi module" style="rounded=0;whiteSpace=wrap;html=1;" vertex="1" parent="1">
          <mxGeometry x="270" y="30" width="120" height="60" as="geometry" />
        </mxCell>
        <mxCell id="yGeUrGvi7ydE_a7yzlmj-14" style="edgeStyle=orthogonalEdgeStyle;rounded=0;orthogonalLoop=1;jettySize=auto;html=1;exitX=0.5;exitY=1;exitDx=0;exitDy=0;entryX=0.5;entryY=0;entryDx=0;entryDy=0;" edge="1" parent="1" source="yGeUrGvi7ydE_a7yzlmj-8" target="yGeUrGvi7ydE_a7yzlmj-2">
          <mxGeometry relative="1" as="geometry" />
        </mxCell>
        <mxCell id="yGeUrGvi7ydE_a7yzlmj-8" value="Motor driver" style="rounded=0;whiteSpace=wrap;html=1;" vertex="1" parent="1">
          <mxGeometry x="360" y="240" width="70" height="50" as="geometry" />
        </mxCell>
        <mxCell id="yGeUrGvi7ydE_a7yzlmj-9" value="Motor with mirror" style="rounded=0;whiteSpace=wrap;html=1;" vertex="1" parent="1">
          <mxGeometry x="460" y="280" width="120" height="60" as="geometry" />
        </mxCell>
        <mxCell id="yGeUrGvi7ydE_a7yzlmj-11" style="edgeStyle=orthogonalEdgeStyle;rounded=0;orthogonalLoop=1;jettySize=auto;html=1;exitX=0.5;exitY=1;exitDx=0;exitDy=0;entryX=1;entryY=0.5;entryDx=0;entryDy=0;" edge="1" parent="1" source="yGeUrGvi7ydE_a7yzlmj-10" target="yGeUrGvi7ydE_a7yzlmj-9">
          <mxGeometry relative="1" as="geometry" />
        </mxCell>
        <mxCell id="yGeUrGvi7ydE_a7yzlmj-10" value="DAC mcp4822" style="rounded=0;whiteSpace=wrap;html=1;" vertex="1" parent="1">
          <mxGeometry x="610" y="195" width="120" height="60" as="geometry" />
        </mxCell>
      </root>
    </mxGraphModel>
  </diagram>
</mxfile>
